<svg id="Layer_1" data-name="Layer 1" xmlns="http://www.w3.org/2000/svg" viewBox="0 0 142.44 177.59"><defs><style>.cls-1{fill:#ffdc0b;}</style></defs><path d="M71.56,143.14v33.77a.53.53,0,0,1-.55.59,21.78,21.78,0,0,1-3.26.06Q29.53,175.79,2.2,149.74a5.68,5.68,0,0,1-1.88-4.41c0-6.62-.21-13.05-.19-19.87s0-14-.08-21.27q-.13-14,.12-30Q.38,61.25,1.89,54.3c3.79-17.42,14.9-32,29.59-42.09,21.86-15.06,50.25-16,73.26-3.79,26.07,13.87,41.21,43.27,37,72.46A71.23,71.23,0,0,1,85.6,140.72c-4.31.9-8.86,1.18-13.35,1.66A.78.78,0,0,0,71.56,143.14Zm-43.07-34.9a.91.91,0,0,1,.65,0,.53.53,0,0,1,.3.23,23.7,23.7,0,0,0,4.34,4.74q15.61,13.35,34,14.21c21.43,1,40.65-8.92,51.74-27.28A56.2,56.2,0,0,0,64.45,15.29Q34.58,19.24,20.87,46a54.48,54.48,0,0,0-6,25.64q.25,35.67-.09,67.6a4.8,4.8,0,0,0,1.77,3.62,85,85,0,0,0,39.7,18.71q.54.1.54-.45V141.47a1.35,1.35,0,0,0-.87-1.26Q34.6,132,28.22,108.82A.5.5,0,0,1,28.49,108.24Z"/><path d="M71.56,143.14v33.77a.53.53,0,0,1-.55.59,21.78,21.78,0,0,1-3.26.06Q29.53,175.79,2.2,149.74a5.68,5.68,0,0,1-1.88-4.41c0-6.62-.21-13.05-.19-19.87s0-14-.08-21.27q-.13-14,.12-30Q.38,61.25,1.89,54.3c3.79-17.42,14.9-32,29.59-42.09,21.86-15.06,50.25-16,73.26-3.79,26.07,13.87,41.21,43.27,37,72.46A71.23,71.23,0,0,1,85.6,140.72c-4.31.9-8.86,1.18-13.35,1.66A.78.78,0,0,0,71.56,143.14Zm-43.07-34.9a.91.91,0,0,1,.65,0,.53.53,0,0,1,.3.23,23.7,23.7,0,0,0,4.34,4.74q15.61,13.35,34,14.21c21.43,1,40.65-8.92,51.74-27.28A56.2,56.2,0,0,0,64.45,15.29Q34.58,19.24,20.87,46a54.48,54.48,0,0,0-6,25.64q.25,35.67-.09,67.6a4.8,4.8,0,0,0,1.77,3.62,85,85,0,0,0,39.7,18.71q.54.1.54-.45V141.47a1.35,1.35,0,0,0-.87-1.26Q34.6,132,28.22,108.82A.5.5,0,0,1,28.49,108.24Z"/><path class="cls-1" d="M28.49,108.24a.5.5,0,0,0-.27.58Q34.6,132,55.88,140.21a1.35,1.35,0,0,1,.87,1.26v19.68q0,.56-.54.45a85,85,0,0,1-39.7-18.71,4.8,4.8,0,0,1-1.77-3.62q.35-31.93.09-67.6a54.48,54.48,0,0,1,6-25.64Q34.6,19.24,64.45,15.29a56.2,56.2,0,0,1,55.07,84.82c-11.09,18.36-30.31,28.28-51.74,27.28q-18.37-.86-34-14.21a23.7,23.7,0,0,1-4.34-4.74.53.53,0,0,0-.3-.23A.91.91,0,0,0,28.49,108.24Zm4.12-34.33q5.2,11.64,10.74,23.86c2.37,5.23,3.64,8.51,9.51,8.41,11.79-.19,23.33-5,33.84-9.93,5.94-2.79,29-15.21,25.28-23.47q-6.54-14.55-13.3-29.31a.86.86,0,0,1,.18-1c6.64-6.41-4.25-12.85-7.34-5.33-1,2.41.93,4.35,2.65,5.78a1,1,0,0,1,.32,1.15C92.05,51,90,57.25,80.73,56.23a39.4,39.4,0,0,1-14.22-4.55.62.62,0,0,1-.36-.67c1-8.59-10.74-7.53-9.31-.4.31,1.53,1.6,2.71,2.76,3.68a.77.77,0,0,1,.27.85c-2.71,9.65-7.54,22.21-20.27,17.08-1.26-.5-2.56-1-3.89-1.38a.77.77,0,0,1-.6-.89c.34-3.67-1.35-6.62-5.29-6.11a4.24,4.24,0,0,0-4,3.85c-.69,4.41,2.29,5.27,6,5.64A.92.92,0,0,1,32.61,73.91Z"/><path d="M31.8,73.33c-3.73-.37-6.71-1.23-6-5.64a4.24,4.24,0,0,1,4-3.85c3.94-.51,5.63,2.44,5.29,6.11a.77.77,0,0,0,.6.89c1.33.42,2.63.88,3.89,1.38,12.73,5.13,17.56-7.43,20.27-17.08a.77.77,0,0,0-.27-.85c-1.16-1-2.45-2.15-2.76-3.68-1.43-7.13,10.33-8.19,9.31.4a.62.62,0,0,0,.36.67,39.4,39.4,0,0,0,14.22,4.55C90,57.25,92.05,51,94.49,44.08a1,1,0,0,0-.32-1.15c-1.72-1.43-3.63-3.37-2.65-5.78,3.09-7.52,14-1.08,7.34,5.33a.86.86,0,0,0-.18,1q6.76,14.76,13.3,29.31C115.69,81,92.64,93.46,86.7,96.25c-10.51,5-22,9.74-33.84,9.93-5.87.1-7.14-3.18-9.51-8.41Q37.82,85.56,32.61,73.91A.92.92,0,0,0,31.8,73.33ZM80,81.23A113.88,113.88,0,0,0,57.69,93.48a29,29,0,0,0-5.37,5,.65.65,0,0,0,.09.92.55.55,0,0,0,.24.12,3.3,3.3,0,0,0,1.33.09A97,97,0,0,0,100.3,80.92a36.93,36.93,0,0,0,5.47-5,.62.62,0,0,0,0-.87.57.57,0,0,0-.21-.13,3.88,3.88,0,0,0-1.59-.2A80.52,80.52,0,0,0,80,81.23Z"/><path class="cls-1" d="M80,81.23a80.52,80.52,0,0,1,24-6.53,3.88,3.88,0,0,1,1.59.2.63.63,0,0,1,.37.8.59.59,0,0,1-.12.2,36.93,36.93,0,0,1-5.47,5A97,97,0,0,1,54,99.66a3.3,3.3,0,0,1-1.33-.09.65.65,0,0,1-.46-.79.85.85,0,0,1,.13-.25,29,29,0,0,1,5.37-5A113.88,113.88,0,0,1,80,81.23Z"/></svg>